<?xml version="1.0" encoding="UTF-8" standalone="no"?>
<!DOCTYPE svg PUBLIC "-//W3C//DTD SVG 1.1//EN" "http://www.w3.org/Graphics/SVG/1.1/DTD/svg11.dtd">
<!-- Created with Vectornator (http://vectornator.io/) -->
<svg height="100%" stroke-miterlimit="10" style="fill-rule:nonzero;clip-rule:evenodd;stroke-linecap:round;stroke-linejoin:round;" version="1.1" viewBox="0 0 48 48" width="100%" xml:space="preserve" xmlns="http://www.w3.org/2000/svg" xmlns:vectornator="http://vectornator.io" xmlns:xlink="http://www.w3.org/1999/xlink">
<defs/>
<g id="Без-названия" vectornator:layerName="Без названия">
<path d="M47.4016 20.2774C40.5009 19.9292 33.1437 22.7287 25.4968 25.6389C18.9501 28.1298 12.1932 30.7017 5.32463 31.4501C10.7104 38.1672 17.6074 41.8827 25.4475 44.7705L25.7259 44.7262C30.697 41.4568 35.3821 37.747 39.7301 33.6385C43.1142 30.3801 46.5532 25.3418 47.4016 20.2774Z" fill="#fdcb05" fill-rule="nonzero" opacity="1" stroke="none" vectornator:layerName="path"/>
<path d="M39.2548 7.32351C41.3568 7.80969 43.2752 8.92523 44.7674 10.5307C47.3676 13.4323 47.9754 16.8608 47.4035 20.2774C40.5009 19.9292 33.1456 22.7287 25.4968 25.6389C18.952 28.1298 12.1932 30.7017 5.32463 31.4501C5.21858 31.3164 5.11064 31.1814 5.00459 31.0452C1.39512 26.4086-1.22771 19.9781 1.19628 14.5796C3.23205 10.0523 7.56682 7.15735 13.8427 7.61704C19.9973 8.0677 22.9989 11.9938 23.8795 13.783C26.6046 8.61443 31.2461 7.56516 32.1892 7.3519C32.2404 7.34004 32.282 7.33076 32.3104 7.3235C34.8708 6.67458 37.1527 6.83733 39.2548 7.32351Z" fill="#0454a9" fill-rule="nonzero" opacity="1" stroke="none" vectornator:layerName="path"/>
</g>
</svg>
